<?xml version="1.0" standalone="no"?>
<!DOCTYPE svg PUBLIC "-//W3C//DTD SVG 20010904//EN"
 "http://www.w3.org/TR/2001/REC-SVG-20010904/DTD/svg10.dtd">
<svg version="1.0" xmlns="http://www.w3.org/2000/svg"
 width="300.000000pt" height="305.000000pt" viewBox="0 0 300.000000 305.000000"
 preserveAspectRatio="xMidYMid meet">
<metadata>
Created by potrace 1.10, written by Peter Selinger 2001-2011
</metadata>
<g transform="translate(0.000000,305.000000) scale(0.050000,-0.050000)"
fill="#e60f0f" stroke="none">
<path d="M2571 5829 c-169 -259 -9 -693 364 -987 127 -100 127 -102 21 -180
-113 -83 -101 -88 -312 131 -295 307 -395 525 -380 830 l8 179 -51 -6 c-38 -4
-53 -20 -61 -62 -9 -48 -28 -62 -140 -102 -834 -293 -1520 -1111 -1701 -2025
-296 -1507 674 -2980 2160 -3278 l69 -14 -115 127 c-170 188 -254 371 -271
591 -46 585 172 911 1028 1537 596 436 746 682 651 1064 -31 126 -156 319
-187 288 -23 -23 -894 -34 -894 -11 0 6 14 38 31 70 l30 59 395 1 394 0 -90
79 c-88 77 -93 79 -245 79 -203 1 -201 23 17 179 l171 122 112 -95 c378 -321
575 -707 533 -1044 -48 -387 -211 -597 -789 -1016 -1069 -774 -1220 -1398
-481 -1982 l106 -83 186 0 186 0 117 87 c542 399 597 974 139 1465 -133 143
-183 180 -159 118 10 -26 -23 -30 -221 -30 -246 0 -264 8 -204 91 23 31 61 41
195 49 160 10 164 12 111 39 -74 38 -62 75 49 155 l94 68 192 -184 c568 -543
662 -1214 234 -1681 l-103 -112 159 46 c1443 420 2287 2103 1787 3569 -230
675 -851 1391 -1356 1563 -65 22 -102 47 -106 71 -18 113 -26 126 -74 126 -48
0 -50 -5 -50 -129 0 -391 -191 -653 -790 -1081 -989 -708 -1118 -1159 -507
-1777 209 -212 197 -178 88 -252 -121 -83 -127 -81 -289 90 -274 288 -383 513
-397 819 -23 479 197 789 904 1280 605 419 826 741 720 1046 -29 81 -49 111
-70 104 -113 -37 -1139 -21 -1139 19 0 56 -28 52 -69 -10z m1239 -259 l0 -60
-625 -5 -625 -6 0 71 0 71 625 -6 625 -5 0 -60z m-1690 -123 c0 -79 -4 -87
-49 -87 -132 0 -471 -172 -709 -360 -219 -173 -551 -637 -632 -881 -20 -60
-48 -127 -62 -149 -46 -70 -132 -428 -118 -490 7 -31 -1 -102 -17 -157 -19
-62 -35 -244 -44 -491 -8 -215 -22 -387 -30 -381 -85 52 -112 808 -41 1149
176 843 711 1545 1412 1849 82 36 145 69 141 73 -5 5 27 10 70 11 l79 2 0 -88z
m2312 -60 c259 -138 529 -367 680 -578 162 -228 105 -230 -118 -4 -290 295
-462 413 -691 474 -85 23 -95 43 -70 136 16 60 38 57 199 -28z m-706 -60 c49
-49 -48 -121 -180 -134 -188 -18 -831 -16 -860 3 -30 19 -68 116 -51 132 16
16 1075 16 1091 -1z m-302 -352 c-89 -90 -467 -113 -542 -33 -85 92 -67 98
283 98 l324 0 -65 -65z m-1045 -34 c35 -64 28 -70 -188 -178 -890 -442 -1190
-1392 -698 -2206 164 -271 487 -556 723 -639 73 -25 76 -32 33 -94 -43 -60
-68 -56 -233 37 -1260 714 -1197 2425 112 3040 186 88 223 94 251 40z m1682
-197 c209 -124 512 -525 617 -815 271 -748 30 -1468 -650 -1944 l-62 -44 -47
50 c-25 27 -42 52 -37 57 4 4 76 61 159 127 834 659 753 1866 -170 2535 l-55
40 44 56 c44 56 45 56 87 18 24 -20 75 -56 114 -80z m-425 -1017 c111 -11 124
-18 141 -68 28 -79 32 -79 -617 -79 -601 0 -610 1 -589 89 l13 50 373 6 c205
3 414 8 465 10 51 3 147 -1 214 -8z m160 -392 l-6 -65 -630 0 -630 0 -6 65 -7
65 643 0 643 0 -7 -65z m-236 -252 l110 -13 -63 -65 -64 -65 -396 0 c-473 1
-527 14 -527 130 0 8 190 14 700 24 72 1 180 -4 240 -11z m-280 -326 c0 -103
-305 -138 -379 -44 -23 30 -34 59 -24 65 33 21 403 1 403 -21z m351 -1059 c46
-89 51 -88 -481 -88 -532 0 -527 -1 -481 88 l32 62 449 0 449 0 32 -62z m165
-323 c25 -95 32 -94 -660 -95 -664 0 -670 1 -648 90 16 64 17 64 696 67 l595
3 17 -65z m28 -335 c-8 -78 -2 -77 -674 -89 -665 -11 -676 -10 -699 64 -26 85
-16 86 695 80 l684 -5 -6 -50z m-104 -279 c0 -11 -10 -42 -23 -70 l-23 -51
-534 0 -534 0 -23 51 c-13 28 -23 59 -23 70 0 12 226 19 580 19 354 0 580 -7
580 -19z"/>
</g>
</svg>
